<svg height="32" viewBox="0 0 32 32" width="32" xmlns="http://www.w3.org/2000/svg"><g fill="none" fill-rule="evenodd"><rect fill="#fff" height="32" rx="7" width="32"/><path d="m18.004442 4.25c5.7851414 0 9.1951858 4.01806405 10.2301334 12.0541922.1293873.9946307-.5716954 1.9060857-1.5662783 2.0358394-.0771803.010069-.1549281.0151659-.2327624.0152605l-2.8952676.0002293c.0148502.073438.0226453.1494438.0226453.2272754 0 2.6504574 1.4235273 5.050211 3.6810115 6.3357253.5447883.3102273.7356323 1.0045776.4262618 1.5508748-.3093704.5462972-1.0018029.7376697-1.5465913.4274424-2.9603501-1.6857581-4.8294454-4.8366413-4.8294454-8.3140425 0-.0778316.0077952-.1538374.0226453-.2272754l-2.1781536-.0005214.000183 7.5079476c0 .6282369-.50788 1.1375235-1.1343817 1.1375235s-1.1343817-.5092866-1.1343817-1.1375235l-.0004196-7.5079476-2.1936693.0002921c0 2.945378-1.3403772 5.6619339-3.5630538 7.4515882l.7391528 1.2813263.0341263 1.9307216c.0007524.042567-.0104802.0844877-.0324153.1209756-.0645973.1074544-.2040727.1421968-.311527.0775996l-1.65499078-.9949151-.77482886-1.340369c-.31589549.0778294-.64352271.1182518-.97711372.1182518-2.25540621 0-4.08377419-1.8334319-4.08377419-4.0950848 0-1.0975819.43061144-2.0943105 1.13166724-2.8295752l-1.78140566-3.0863607c-.31325086-.5425664-.12735388-1.2363434.41521253-1.5495942.54256641-.3132509 1.23634338-.1273539 1.54959424.4152125l1.77679336 3.0768677c.31755329-.0794555.64982072-.1216349.99191248-.1216349.62650172 0 1.13438172.5092867 1.13438172 1.1375236 0 .5469565-.38496377 1.0037509-.89801386 1.1127943l1.58689307 2.747349c1.53458313-1.3612278 2.44862603-3.3279523 2.44862603-5.4526763h-2.83385873c-1.00301039-.0012039-1.81513606-.8152794-1.81393345-1.8182898.00009333-.0778343.00519024-.155582.01489273-.2328101 1.0349476-8.03612815 4.44499205-12.0541922 10.23013345-12.0541922zm-11.56442201 18.003975c-.07733425.2022543-.1197097.4218704-.1197097.6514113 0 .9095138.66529269 1.6632097 1.53450174 1.7984336zm11.61978321-13.34012842c-.3685174.04136923-.7609202.19650383-1.1772083.4654038-.4162882.26889998-.7677445.62053841-1.0543692 1.05491532-.2456782.372323-.3860658.7775726-.4206517 1.2164288l-.01221.3363947c0 .8604105.7278826 1.6203309 1.5775723 1.6979391l.167113.0065172c.7948467 0 1.4315836-.6283955 1.4315836-1.37498l-.0007882-.0470766c-.0157223-.4688258-.2653933-.8781797-.6359487-1.1143652l-.1424188-.1198589c-.0406017-.0356808-.0743322-.0670895-.1011914-.0942261-.0955415-.0965282-.1433123-.2413205-.1433123-.4343769s.0648317-.4033499.1944953-.63088069c.1296635-.22753075.3173344-.42403458.5630126-.58951149zm5.5584704 0c-.3685174.04136923-.7609201.19650383-1.1772083.4654038-.4162881.26889998-.7677445.62053841-1.0543691 1.05491532-.2456783.372323-.3860659.7775726-.4206518 1.2164288l-.0122099.3363947c0 .8604105.7278825 1.6203309 1.5775722 1.6979391l.167113.0065172c.7948468 0 1.4315836-.6283955 1.4315836-1.37498l-.0007882-.0470766c-.0157222-.4688258-.2653933-.8781797-.6359486-1.1143652l-.1424189-.1198589c-.0406017-.0356808-.0743322-.0670895-.1011914-.0942261-.0955415-.0965282-.1433123-.2413205-.1433123-.4343769s.0648318-.4033499.1944953-.63088069c.1296635-.22753075.3173344-.42403458.5630126-.58951149z" fill="#000"/></g></svg>