<svg height="16" viewBox="0 0 16 16" width="16" xmlns="http://www.w3.org/2000/svg"><g fill="none" fill-rule="evenodd"><path d="m0 0h16v16h-16z"/><path d="m9.26178379 2c3.24050971 0 5.15044851 2.25068937 5.72981641 6.75206811.0716611.55722171-.3220483 1.06696645-.879282 1.13853484-.0421548.00541417-.0846076.00818115-.1271086.00828767l-1.6232545-.00122903.0096657.06337041.0032933.0652601c0 1.4842424.7972744 2.828092 2.0616227 3.5479734.3051194.1737256.4120053.5625582.2387363.8684818-.173269.3059237-.5610794.4130913-.8661988.2393656-1.6580021-.9440158-2.7048256-2.7084941-2.7048256-4.6558208 0-.04406504.0044625-.08708504.012959-.12863051l-1.2202077.00033841.00011651 4.2051389c0 .3518094-.28444815.6370073-.63533272.6370073-.35088458 0-.63533273-.2851979-.63533273-.6370073l-.00045106-4.2051389-1.22839143.00089062c0 1.64985878-.75112544 3.17150648-1.99660497 4.17369338l.4146326.7166512.01904969 1.0812139c.00042.0238379-.00587033.0473138-.01815303.067748-.03617909.0601898-.11430152.0796544-.17449133.0434753l-.92683389-.5571045-.43400709-.7505337c-.17678762.0435131-.36013225.066112-.54681149.066112-1.26318447 0-2.28719781-1.0267124-2.28719781-2.2932263 0-.6145158.24107471-1.172577.63357391-1.5842974l-.99733647-1.72848028c-.17544228-.30387496-.07132703-.69243836.23254792-.86788064.30387496-.17544229.69243836-.07132704.86788065.23254791l.99410854 1.72322011c.17811904-.0446375.36451088-.0683361.55642326-.0683361.35088458 0 .63533273.2851979.63533273.6370074 0 .3065292-.21593948.5624902-.50361578.6233001l.8887425 1.5389751c.85989151-.762303 1.3720946-1.863931 1.3720946-3.05408548h-1.58858515c-.5618091-.00137125-1.0161362-.45791669-1.01476797-1.01972579.00010351-.04250101.00287048-.08495376.0083774-.12709672.57936788-4.50137874 2.48930668-6.75206811 5.7298164-6.75206811zm-6.47692421 10.0822451c-.04328534.1132303-.06700288.2361755-.06700288.3646748 0 .5088852.37196994.9306631.85817272 1.0069174zm6.50793032-7.47051514c-.20639539.02316656-.42616825.11004113-.65931859.26062373-.23315034.15058259-.42999038.34749829-.59052012.5907471-.1284238.19459905-.20547807.40526024-.23093017.6322932l-.0115025.23727992c0 .47226544.39164819.89046782.85530696.9478015l.12183823.00668525c.4451695 0 .80178644-.35189824.80178644-.7699817l-.00044145-.02636266c-.00880553-.26254003-.1486387-.49177608-.35617549-.62403872l-.10122147-.08630399c-.01344947-.01225745-.02518854-.02345162-.03521723-.03358252-.05350991-.05405529-.08026487-.13513823-.08026487-.24324881s.0363103-.22587389.1089309-.35328994c.0726206-.12741604.17772936-.23745717.31532628-.33012338zm3.1131304 0c-.2063954.02316656-.4261683.11004113-.6593186.26062373-.2331504.15058259-.4299904.34749829-.5905202.5907471-.1284237.19459905-.205478.40526024-.2309301.6322932l-.0115025.23727992c0 .47226544.3916482.89046782.8553069.9478015l.1218383.00668525c.4451695 0 .8017864-.35189824.8017864-.7699817l-.0004414-.02636266c-.0088056-.26254003-.1486387-.49177608-.3561755-.62403872l-.1012215-.08630399c-.0134495-.01225745-.0251885-.02345162-.0352172-.03358252-.0535099-.05405529-.0802649-.13513823-.0802649-.24324881s.0363103-.22587389.1089309-.35328994c.0726206-.12741604.1777294-.23745717.3153263-.33012338z" fill="#000"/></g></svg>