<svg height="16" viewBox="0 0 16 16" width="16" xmlns="http://www.w3.org/2000/svg"><g fill="none" transform="translate(1 1)"><path d="m11.9997433 0h-9.99948657c-1.10470429 0-2.00025673.89555244-2.00025673 2.00025673v9.99948657c0 1.1047043.89555244 2.0002567 2.00025673 2.0002567h9.99948657c1.1047043 0 2.0002567-.8955524 2.0002567-2.0002567v-9.99948657c0-1.10470429-.8955524-2.00025673-2.0002567-2.00025673z" fill="#4cade8"/><path d="m11.3773665 4.49920246h-4.00048219c-.27591891 0-.49959537.22367647-.49959537.49959538 0 .2759189.22367646.49959537.49959537.49959537h4.00051349c.2759189 0 .4995953-.22367647.4995953-.49959537 0-.27591891-.2236764-.49959538-.4995953-.49959538zm0 4.00240433h-4.00048219c-.27591891 0-.49959537.22367647-.49959537.49959537 0 .27591891.22367646.49959538.49959537.49959538h4.00051349c.2759189 0 .4995953-.22367647.4995953-.49959538 0-.2759189-.2236764-.49959537-.4995953-.49959537zm-7.00083603-1.24976978c-.96662406 0-1.75000586.78360057-1.75000586 1.74999023s.78360057 1.75002146 1.75000586 1.75002146 1.74999414-.78360054 1.74999414-1.75000583-.7833857-1.75000586-1.74999414-1.75000586zm.53103691 2.28126155c-.2533791.25314141-.6502847.29206148-.94801011.09296069s-.41336119-.58077761-.27619637-.91163612c.13716482-.33085852.48893309-.51876251.84019948-.4488092s.60421157.37828359.60416266.73644772c.00050327.19933358-.07877358.39058166-.22015566.53109941zm.61589155-5.88491157-1.64703952 1.64697701-.6468174-.6468799c-.12621189-.1262119-.31016974-.17550325-.48257839-.12930649-.17240866.04619676-.30707515.18086325-.35327191.3532719-.04619676.17240866.0030946.3563665.1293065.4825784l1.00008148 1.00015962c.09369332.09369991.22077269.14634054.35327972.14634054s.2595864-.05264063.35327971-.14634054l2.00025673-2.00025673c.19300249-.19545094.19201625-.51005218-.00220788-.7042892-.19422412-.19423701-.5088253-.19524413-.70428904-.00225461z" fill="#fff"/></g></svg>