<svg height="16" viewBox="0 0 16 16" width="16" xmlns="http://www.w3.org/2000/svg"><g fill="none" transform="translate(1 1)"><path d="m11.9997433 0h-9.99948657c-1.10470429 0-2.00025673.89555244-2.00025673 2.00025673v9.99948657c0 1.1047043.89555244 2.0002567 2.00025673 2.0002567h9.99948657c1.1047043 0 2.0002567-.8955524 2.0002567-2.0002567v-9.99948657c0-1.10470429-.8955524-2.00025673-2.0002567-2.00025673z" fill="#e54a39"/><path d="m10.15 4.55c.21-.14.49-.14.63 0 .21.21.21.49.07.63-.21.21-.49.42-.7.7 0-.42-.07-.76999999-.28-1.05zm-6.79 0c.21-.21.49000001-.21.69999999 0 .07000001.07.14.13999999.21.28-.21.35-.34999999.70000001-.27999999 1.05l-.07-.07-.56-.56c-.21-.21-.21-.49 0-.7zm-.84 3.29000001c0-.28000001.14-.49000001.35-.56000001h1.05v.98000001h-.91000001c-.28000001 0-.48999999-.21-.48999999-.42zm1.95999999 3.14999999c-.21.14-.49.14-.63-.07-.13999999-.21-.21-.49 0-.63l.07000001-.07.34999999-.35c.21.28.35.56.56000001.84-.13999999.07-.21.21-.35000001.28zm2.17000001.07c-.56-.07-.77-.14-1.19-.49-.49-.42-.84-.97999999-.98000001-1.61-.06999999-.28000001 0-.63-.06999999-.90999999v-.77000001-1.32999999c0-.35.14-.63.35-.84 0 0 .07-.07000001.13999999 0 .42.28.91000001.55999999 1.33000001.84.28.21.42.49.42.76999999.07 0 .07 4.06 0 4.34.07 0 .07 0 0 0zm0-5.73999999c-.42-.28000001-.91000001-.56-1.33000001-.84l-.06999999-.07000001c0-.91.70000001-1.68 1.68-1.81999999h.21c.98 0 1.82.84 1.89 1.81999999 0 0 0 .07000001-.07.07000001-.49000001.28-.91000001.55999999-1.4.84-.28.21-.63.21-.91 0zm1.05 5.73999999h-.28000001c0-.14.07000001-4.2.07000001-4.41 0-.42.13999999-.70000001.49-.90999999.42-.28000001.84-.49000001 1.26-.77000001.07000001-.07000001.07000001 0 .14 0 .21.21.34999999.49.34999999.84v2.8c0 .49000001-.21.98-.48999999 1.4-.49.63-.84.98-1.54 1.05zm2.66-.14c-.14.21-.42000001.21-.63000001.07-.13999999-.07-.21-.21-.27999999-.28.21-.28.35-.56.56-.84l.42.42c.14.14.07.49-.07.63zm.7-2.65999999h-.84-.07v-.98000001h.91c.28 0 .49.21.49.49.07.28000001-.21.49000001-.49.49000001z" fill="#fff"/></g></svg>